<svg xmlns="http://www.w3.org/2000/svg" xmlns:xlink="http://www.w3.org/1999/xlink" version="1.1" x="0px" y="0px" viewBox="0 0 100 125" enable-background="new 0 0 100 100" xml:space="preserve"><path d="M77.5,61.3c2.1,0,3.8-1.7,3.8-3.8s-1.7-3.8-3.8-3.8s-3.8,1.7-3.8,3.8S75.4,61.3,77.5,61.3z M77.5,56.3  c0.7,0,1.3,0.6,1.3,1.3s-0.6,1.3-1.3,1.3s-1.3-0.6-1.3-1.3S76.8,56.3,77.5,56.3z"/><path d="M77.5,66.3c-2.1,0-3.8,1.7-3.8,3.8s1.7,3.8,3.8,3.8s3.8-1.7,3.8-3.8S79.6,66.3,77.5,66.3z M77.5,71.3  c-0.7,0-1.3-0.6-1.3-1.3s0.6-1.3,1.3-1.3s1.3,0.6,1.3,1.3S78.2,71.3,77.5,71.3z"/><path d="M94.3,48.2c-0.1-0.1-0.1-0.1-0.2-0.2L81.8,35.7C81.3,35.3,80.7,35,80,35H20c-0.7,0-1.3,0.3-1.8,0.7L5.7,48.2  C5.3,48.7,5,49.4,5,50v42.5c0,2.3,3,3.4,4.4,1.6l12.5-15c0.4-0.4,0.6-1,0.6-1.6v-25H55v11.3c0,0.1,0,0.3,0.1,0.4l5,15  c0.4,1.1,1.6,0.9,2.4,0.9h16.3l11.8,14.1c1.5,1.8,4.4,0.7,4.4-1.6V50.2C95.1,49.5,94.8,48.7,94.3,48.2  C94.2,48.2,94.8,48.7,94.3,48.2C94.2,48.2,94.8,48.7,94.3,48.2z M65,75V65h25v10H65z M90,62.5H65v-10h25V62.5z M17.5,76.6l-7.5,9  V52.5h7.5V76.6z M13.5,47.5L21,40H79l7.5,7.5H13.5z M57.5,52.5H60V71l-2.5-7.5V52.5z M85.3,80H90v5.6L85.3,80z"/><text x="0" y="115" fill="#000000" font-size="5px" font-weight="bold" font-family="'Helvetica Neue', Helvetica, Arial-Unicode, Arial, Sans-serif">Created by Arthur Shlain</text><text x="0" y="120" fill="#000000" font-size="5px" font-weight="bold" font-family="'Helvetica Neue', Helvetica, Arial-Unicode, Arial, Sans-serif">from the Noun Project</text></svg>